<?xml version="1.0" encoding="UTF-8" standalone="no"?>
<!-- Created with Inkscape (http://www.inkscape.org/) -->

<svg
   width="500"
   height="500"
   viewBox="0 0 132.29166 132.29167"
   version="1.1"
   id="svg1"
   inkscape:version="1.3.2 (091e20ef0f, 2023-11-25)"
   sodipodi:docname="logo.svg"
   xmlns:inkscape="http://www.inkscape.org/namespaces/inkscape"
   xmlns:sodipodi="http://sodipodi.sourceforge.net/DTD/sodipodi-0.dtd"
   xmlns="http://www.w3.org/2000/svg"
   xmlns:svg="http://www.w3.org/2000/svg">
  <sodipodi:namedview
     id="namedview1"
     pagecolor="#ffffff"
     bordercolor="#000000"
     borderopacity="0.25"
     inkscape:showpageshadow="2"
     inkscape:pageopacity="0.0"
     inkscape:pagecheckerboard="0"
     inkscape:deskcolor="#d1d1d1"
     inkscape:document-units="mm"
     inkscape:zoom="1.1975995"
     inkscape:cx="15.86507"
     inkscape:cy="297.26131"
     inkscape:window-width="3796"
     inkscape:window-height="2074"
     inkscape:window-x="0"
     inkscape:window-y="0"
     inkscape:window-maximized="1"
     inkscape:current-layer="layer3" />
  <defs
     id="defs1" />
  <g
     inkscape:label="Layer 1"
     inkscape:groupmode="layer"
     id="layer1">
    <path
       id="path1"
       style="fill:#0b0b0b;stroke-width:0.298151;fill-opacity:1"
       d="m 125.67709,66.145836 c -0.0323,59.428254 -0.0367,59.609234 -59.531254,59.531254 C 6.6295755,125.59908 6.6441755,125.6151 6.6145859,66.145836 6.5849752,6.6341235 6.6365815,6.6010452 66.145836,6.6145859 c 59.512144,0.013541 59.563614,-0.002 59.531254,59.5312501 z"
       sodipodi:nodetypes="sssss" />
  </g>
  <g
     inkscape:groupmode="layer"
     id="layer3"
     inkscape:label="Layer 3">
    <path
       id="path5"
       style="fill:#242424;stroke-width:0.298151;fill-opacity:1"
       d="M 66.145833 6.6145833 C 56.344739 6.6123532 48.292438 6.6371223 41.451733 6.9029378 L 6.8853678 41.805717 C 6.6338573 48.575208 6.6097889 56.509961 6.6145833 66.145833 C 6.6356885 108.56312 6.6521596 120.7103 28.246338 124.22136 L 124.12886 27.406596 C 120.45171 6.6497917 108.03466 6.6241144 66.145833 6.6145833 z " />
  </g>
  <path
     id="path4"
     style="fill:#ca1aca;fill-opacity:1;stroke-width:0.264583"
     d="m 106.73889,31.70985 c -0.64047,-0.01701 -1.29343,0.15107 -1.87689,0.522449 -10.204885,6.495556 -20.409776,12.991111 -30.614665,19.486666 -0.161399,0.102733 -0.298753,0.230596 -0.445451,0.343131 -0.261809,0.200836 -0.517664,0.421699 -0.730706,0.697115 -7.40127,9.568237 -22.203812,28.704709 -22.203812,28.704709 -0.02588,0.03345 -0.04618,0.06967 -0.07183,0.102839 L 49.061793,83.808483 40.804416,62.745168 C 40.131287,61.028052 38.207067,60.1874 36.48995,60.860529 l -8.428426,3.304192 c -1.717116,0.67313 -2.557769,2.597349 -1.884639,4.314465 l 13.245184,33.787084 c 0.673129,1.71711 2.310264,2.16722 4.387518,2.23855 0,0 4.805609,-0.0258 4.806876,-0.0345 2.32549,0.0266 4.862587,-0.94781 5.991022,-2.40666 L 76.187267,74.419905 c 0.02756,-0.03563 -0.158283,0.19395 0.07648,-0.109551 0,0 4.780992,-7.405559 8.001062,-10.343558 8.474629,-7.732273 29.033371,-18.480526 29.033371,-18.480526 1.55589,-0.990347 2.01147,-3.040208 1.02112,-4.596101 l -4.8612,-7.636744 c -0.61897,-0.972433 -1.65177,-1.515224 -2.71921,-1.543575 z"
     sodipodi:nodetypes="sssssssccccccccccsscccs" />
  <g
     inkscape:groupmode="layer"
     id="layer2"
     inkscape:label="Layer 2">
    <path
       id="rect1"
       style="fill:#48cc18;fill-opacity:1;stroke-width:0.264583"
       d="m 97.459954,27.406539 c -0.640467,-0.01701 -1.293428,0.15107 -1.876888,0.52245 -10.204889,6.495555 -20.40978,12.99111 -30.614669,19.486665 -0.161399,0.102733 -0.298752,0.230596 -0.445451,0.343131 -0.261808,0.200836 -0.517663,0.421699 -0.730705,0.697116 -7.401271,9.568236 -22.203813,28.704708 -22.203813,28.704708 -0.02588,0.03345 -0.04618,0.06967 -0.07183,0.102839 l -1.733745,2.241725 -8.257376,-21.063315 c -0.67313,-1.717116 -2.597349,-2.557769 -4.314466,-1.88464 l -8.428426,3.304192 c -1.717116,0.67313 -2.557769,2.597349 -1.88464,4.314465 l 13.245185,33.78708 c 0.673129,1.717116 2.310263,2.167215 4.387518,2.238555 0,0 4.805609,-0.0258 4.806876,-0.0345 2.32549,0.0266 4.862586,-0.947809 5.991022,-2.406657 L 66.90833,70.116594 c 0.02756,-0.03563 -0.158284,0.19395 0.07648,-0.10955 0,0 4.780992,-7.40556 8.001061,-10.343559 8.47463,-7.732273 29.033367,-18.480525 29.033367,-18.480525 1.5559,-0.990348 2.01148,-3.040209 1.02113,-4.596102 l -4.8612,-7.636744 C 99.5602,27.977682 98.527398,27.434891 97.459954,27.406539 Z"
       sodipodi:nodetypes="sssssssccccccccccsscccs" />
  </g>
</svg>
